<svg id="svg" version="1.1" width="400" height="16.680032076984762" xmlns="http://www.w3.org/2000/svg" xmlns:xlink="http://www.w3.org/1999/xlink" style="display: block;"><g id="svgg"><path id="path0" d="M173.766 3.601 C 173.693 3.792,173.544 3.839,173.248 3.765 C 172.935 3.686,172.833 3.726,172.833 3.927 C 172.833 4.074,172.747 4.166,172.642 4.131 C 172.445 4.065,171.333 5.108,171.333 5.359 C 171.333 5.437,171.221 5.500,171.083 5.500 C 170.946 5.500,170.833 5.612,170.833 5.750 C 170.833 5.888,170.757 6.000,170.663 6.000 C 170.567 6.000,170.537 6.174,170.595 6.403 C 170.769 7.095,170.344 7.167,166.052 7.167 L 162.081 7.167 161.860 7.667 C 161.676 8.083,161.676 8.252,161.861 8.676 L 162.083 9.184 166.373 9.134 C 170.396 9.086,170.657 9.101,170.570 9.375 C 170.519 9.535,170.558 9.667,170.655 9.667 C 170.753 9.667,170.833 9.745,170.833 9.841 C 170.833 10.069,172.431 11.667,172.659 11.667 C 172.755 11.667,172.833 11.747,172.833 11.845 C 172.833 11.943,172.974 11.978,173.149 11.922 C 173.330 11.865,173.574 11.931,173.721 12.078 C 174.058 12.415,175.278 12.412,175.617 12.074 C 175.759 11.931,175.977 11.853,176.099 11.900 C 176.222 11.947,176.523 11.820,176.769 11.618 C 177.615 10.921,178.500 10.013,178.500 9.840 C 178.500 9.745,178.580 9.667,178.678 9.667 C 178.776 9.667,178.814 9.535,178.763 9.375 C 178.675 9.098,179.747 9.083,199.677 9.083 C 219.601 9.083,220.680 9.098,220.607 9.375 C 220.560 9.556,220.625 9.667,220.779 9.667 C 220.916 9.667,220.999 9.754,220.963 9.862 C 220.894 10.067,222.415 11.667,222.679 11.667 C 222.764 11.667,222.833 11.750,222.833 11.851 C 222.833 11.966,222.994 11.996,223.254 11.931 C 223.548 11.857,223.703 11.901,223.771 12.079 C 223.842 12.264,224.117 12.333,224.778 12.333 C 225.277 12.333,225.645 12.266,225.594 12.184 C 225.473 11.988,225.931 11.817,226.250 11.940 C 226.387 11.992,226.500 11.955,226.500 11.856 C 226.500 11.757,226.796 11.506,227.158 11.298 C 227.521 11.089,227.894 10.750,227.988 10.543 C 228.082 10.336,228.236 10.167,228.330 10.167 C 228.423 10.167,228.500 10.054,228.500 9.917 C 228.500 9.779,228.580 9.667,228.678 9.667 C 228.776 9.667,228.814 9.535,228.763 9.375 C 228.675 9.098,229.738 9.083,249.502 9.083 C 269.230 9.083,270.333 9.099,270.333 9.375 C 270.333 9.535,270.408 9.667,270.500 9.667 C 270.592 9.667,270.667 9.741,270.667 9.831 C 270.667 10.182,271.953 11.500,272.295 11.500 C 272.414 11.500,272.554 11.615,272.608 11.755 C 272.670 11.916,272.822 11.973,273.021 11.910 C 273.221 11.846,273.371 11.905,273.435 12.072 C 273.578 12.444,275.255 12.444,275.398 12.072 C 275.465 11.898,275.610 11.846,275.833 11.916 C 276.024 11.977,276.167 11.947,276.167 11.845 C 276.167 11.747,276.273 11.667,276.403 11.667 C 276.716 11.667,278.279 10.088,278.200 9.851 C 278.167 9.750,278.251 9.667,278.387 9.667 C 278.542 9.667,278.607 9.556,278.559 9.375 C 278.487 9.098,279.569 9.083,299.575 9.083 C 319.551 9.083,320.667 9.099,320.667 9.375 C 320.667 9.535,320.742 9.667,320.833 9.667 C 320.925 9.667,321.000 9.779,321.000 9.917 C 321.000 10.054,321.077 10.167,321.170 10.167 C 321.264 10.167,321.425 10.353,321.529 10.580 C 321.632 10.808,321.856 11.038,322.025 11.091 C 322.195 11.145,322.333 11.297,322.333 11.428 C 322.333 11.559,322.483 11.667,322.667 11.667 C 322.850 11.667,323.000 11.747,323.000 11.845 C 323.000 11.943,323.140 11.978,323.316 11.922 C 323.497 11.865,323.740 11.931,323.887 12.078 C 324.210 12.401,325.443 12.414,325.759 12.098 C 325.888 11.969,326.145 11.903,326.330 11.951 C 326.565 12.012,326.667 11.958,326.667 11.769 C 326.667 11.621,326.763 11.500,326.881 11.500 C 327.199 11.500,328.618 10.105,328.540 9.869 C 328.503 9.758,328.584 9.667,328.721 9.667 C 328.875 9.667,328.940 9.556,328.893 9.375 C 328.820 9.098,329.891 9.083,349.656 9.083 C 369.428 9.083,370.491 9.098,370.403 9.375 C 370.353 9.535,370.391 9.667,370.489 9.667 C 370.587 9.667,370.667 9.745,370.667 9.840 C 370.667 10.014,371.548 10.917,372.416 11.634 C 372.672 11.845,372.981 11.979,373.102 11.932 C 373.224 11.886,373.433 11.957,373.567 12.090 C 373.889 12.413,375.119 12.405,375.446 12.078 C 375.593 11.931,375.836 11.865,376.018 11.922 C 376.193 11.978,376.333 11.943,376.333 11.845 C 376.333 11.747,376.412 11.667,376.508 11.667 C 376.735 11.667,378.333 10.069,378.333 9.841 C 378.333 9.745,378.416 9.667,378.518 9.667 C 378.620 9.667,378.656 9.545,378.598 9.396 C 378.541 9.246,378.561 9.040,378.643 8.937 C 378.924 8.582,378.974 7.026,378.707 6.923 C 378.542 6.860,378.498 6.698,378.569 6.415 C 378.629 6.176,378.601 6.000,378.503 6.000 C 378.410 6.000,378.333 5.925,378.333 5.834 C 378.333 5.600,376.794 4.169,376.542 4.168 C 376.427 4.167,376.333 4.053,376.333 3.913 C 376.333 3.727,376.224 3.688,375.918 3.765 C 375.623 3.839,375.474 3.792,375.400 3.601 C 375.255 3.222,373.745 3.222,373.600 3.601 C 373.526 3.792,373.377 3.839,373.082 3.765 C 372.771 3.686,372.667 3.726,372.667 3.923 C 372.667 4.068,372.601 4.146,372.521 4.096 C 372.366 4.001,370.667 5.614,370.667 5.857 C 370.667 5.936,370.590 6.000,370.497 6.000 C 370.400 6.000,370.371 6.174,370.428 6.403 C 370.623 7.180,370.991 7.167,349.667 7.167 C 328.343 7.167,328.710 7.180,328.905 6.403 C 328.978 6.112,328.937 6.000,328.758 6.000 C 328.606 6.000,328.548 5.903,328.606 5.750 C 328.659 5.613,328.627 5.500,328.534 5.500 C 328.316 5.500,327.167 4.351,327.167 4.132 C 327.167 4.040,327.054 4.008,326.917 4.060 C 326.763 4.119,326.667 4.060,326.667 3.908 C 326.667 3.727,326.555 3.688,326.252 3.765 C 325.956 3.839,325.807 3.792,325.734 3.601 C 325.588 3.221,324.078 3.222,323.932 3.602 C 323.867 3.774,323.708 3.840,323.495 3.784 C 323.294 3.731,322.988 3.840,322.727 4.057 C 321.935 4.712,321.000 5.678,321.000 5.840 C 321.000 5.928,320.916 6.000,320.814 6.000 C 320.709 6.000,320.666 6.147,320.716 6.336 C 320.943 7.206,321.943 7.167,299.613 7.164 C 278.223 7.161,278.380 7.167,278.564 6.435 C 278.648 6.100,278.611 6.000,278.402 6.000 C 278.230 6.000,278.166 5.909,278.227 5.750 C 278.280 5.612,278.242 5.500,278.144 5.500 C 278.045 5.500,277.821 5.318,277.646 5.095 C 277.471 4.873,277.066 4.529,276.746 4.331 C 276.426 4.133,276.206 3.904,276.257 3.822 C 276.309 3.737,276.127 3.716,275.842 3.773 C 275.442 3.853,275.333 3.817,275.333 3.604 C 275.333 3.212,273.749 3.216,273.529 3.608 C 273.432 3.782,273.249 3.850,273.032 3.793 C 272.825 3.739,272.653 3.795,272.600 3.932 C 272.552 4.058,272.397 4.117,272.256 4.063 C 272.115 4.009,272.000 4.042,272.000 4.136 C 272.000 4.230,271.700 4.602,271.333 4.961 C 270.967 5.321,270.667 5.701,270.667 5.807 C 270.667 5.913,270.583 6.000,270.481 6.000 C 270.376 6.000,270.333 6.147,270.382 6.336 C 270.610 7.206,271.584 7.167,249.583 7.167 C 227.583 7.167,228.557 7.206,228.784 6.336 C 228.834 6.147,228.791 6.000,228.686 6.000 C 228.584 6.000,228.500 5.928,228.500 5.840 C 228.500 5.752,228.200 5.374,227.833 5.000 C 227.467 4.626,227.167 4.240,227.167 4.142 C 227.167 4.044,227.051 4.009,226.910 4.063 C 226.765 4.119,226.613 4.055,226.560 3.915 C 226.496 3.750,226.335 3.702,226.068 3.769 C 225.790 3.838,225.639 3.788,225.567 3.601 C 225.493 3.407,225.245 3.333,224.667 3.333 C 224.088 3.333,223.841 3.407,223.766 3.601 C 223.693 3.792,223.544 3.839,223.248 3.765 C 222.960 3.692,222.833 3.729,222.833 3.885 C 222.833 4.009,222.639 4.215,222.401 4.342 C 222.162 4.469,221.792 4.782,221.578 5.037 C 221.364 5.292,221.100 5.500,220.993 5.500 C 220.886 5.500,220.841 5.612,220.894 5.750 C 220.952 5.903,220.894 6.000,220.742 6.000 C 220.563 6.000,220.522 6.112,220.595 6.403 C 220.790 7.180,221.166 7.167,199.667 7.167 C 178.167 7.167,178.543 7.180,178.739 6.403 C 178.796 6.174,178.766 6.000,178.670 6.000 C 178.576 6.000,178.500 5.931,178.500 5.847 C 178.500 5.593,176.883 4.067,176.684 4.133 C 176.583 4.167,176.500 4.074,176.500 3.927 C 176.500 3.726,176.398 3.686,176.085 3.765 C 175.789 3.839,175.640 3.792,175.567 3.601 C 175.422 3.222,173.912 3.222,173.766 3.601 " stroke="none" fill="#8DBE2D" fill-rule="evenodd"></path><path id="path1" d="M23.000 3.596 C 23.000 3.751,23.113 3.836,23.278 3.804 C 23.696 3.723,23.753 3.333,23.347 3.333 C 23.142 3.333,23.000 3.441,23.000 3.596 M25.542 3.542 C 25.580 3.656,25.711 3.750,25.833 3.750 C 25.956 3.750,26.087 3.656,26.125 3.542 C 26.166 3.418,26.048 3.333,25.833 3.333 C 25.619 3.333,25.500 3.418,25.542 3.542 M73.000 3.596 C 73.000 3.751,73.113 3.836,73.278 3.804 C 73.696 3.723,73.753 3.333,73.347 3.333 C 73.142 3.333,73.000 3.441,73.000 3.596 M75.542 3.542 C 75.647 3.857,76.167 3.902,76.167 3.596 C 76.167 3.441,76.024 3.333,75.819 3.333 C 75.616 3.333,75.501 3.419,75.542 3.542 M123.333 3.583 C 123.333 3.722,123.481 3.833,123.667 3.833 C 123.852 3.833,124.000 3.722,124.000 3.583 C 124.000 3.444,123.852 3.333,123.667 3.333 C 123.481 3.333,123.333 3.444,123.333 3.583 M125.875 3.542 C 125.980 3.857,126.500 3.902,126.500 3.596 C 126.500 3.441,126.358 3.333,126.153 3.333 C 125.949 3.333,125.834 3.419,125.875 3.542 M21.208 4.590 C 20.910 4.902,20.667 5.234,20.667 5.329 C 20.667 5.659,21.112 5.496,21.332 5.086 C 21.454 4.858,21.691 4.628,21.860 4.575 C 22.202 4.466,22.285 3.994,21.958 4.011 C 21.844 4.018,21.506 4.278,21.208 4.590 M27.000 4.150 C 27.000 4.295,28.131 5.500,28.267 5.500 C 28.472 5.500,28.267 5.105,27.793 4.589 C 27.256 4.004,27.000 3.862,27.000 4.150 M71.250 4.611 C 70.671 5.309,70.575 5.500,70.803 5.500 C 71.008 5.500,72.167 4.353,72.167 4.150 C 72.167 3.818,71.722 4.042,71.250 4.611 M77.000 4.239 C 77.000 4.370,77.138 4.521,77.307 4.575 C 77.475 4.628,77.713 4.858,77.835 5.086 C 78.042 5.473,78.500 5.665,78.500 5.366 C 78.500 5.153,77.391 4.000,77.186 4.000 C 77.084 4.000,77.000 4.107,77.000 4.239 M121.707 4.589 C 121.209 5.131,121.029 5.500,121.261 5.500 C 121.408 5.500,122.500 4.304,122.500 4.143 C 122.500 3.862,122.240 4.009,121.707 4.589 M127.333 4.239 C 127.333 4.370,127.471 4.521,127.640 4.575 C 127.809 4.628,128.046 4.858,128.168 5.086 C 128.388 5.497,128.833 5.658,128.833 5.328 C 128.833 5.104,127.730 4.000,127.506 4.000 C 127.411 4.000,127.333 4.107,127.333 4.239 M20.000 6.681 C 20.000 7.087,20.389 7.029,20.471 6.611 C 20.502 6.447,20.417 6.333,20.262 6.333 C 20.108 6.333,20.000 6.476,20.000 6.681 M28.623 6.433 C 28.489 6.566,28.664 7.000,28.851 7.000 C 28.933 7.000,29.000 6.850,29.000 6.667 C 29.000 6.342,28.823 6.232,28.623 6.433 M70.167 6.583 C 70.167 6.721,70.242 6.833,70.333 6.833 C 70.425 6.833,70.500 6.721,70.500 6.583 C 70.500 6.446,70.425 6.333,70.333 6.333 C 70.242 6.333,70.167 6.446,70.167 6.583 M78.667 6.667 C 78.667 6.850,78.742 7.000,78.833 7.000 C 78.925 7.000,79.000 6.850,79.000 6.667 C 79.000 6.483,78.925 6.333,78.833 6.333 C 78.742 6.333,78.667 6.483,78.667 6.667 M120.500 6.667 C 120.500 6.850,120.567 7.000,120.649 7.000 C 120.836 7.000,121.011 6.566,120.877 6.433 C 120.677 6.232,120.500 6.342,120.500 6.667 M129.000 6.566 C 129.000 6.693,129.112 6.841,129.250 6.894 C 129.420 6.959,129.500 6.885,129.500 6.661 C 129.500 6.481,129.388 6.333,129.250 6.333 C 129.112 6.333,129.000 6.438,129.000 6.566 M20.030 9.042 C 20.088 9.449,20.386 9.497,20.467 9.113 C 20.494 8.982,20.395 8.829,20.247 8.772 C 20.040 8.693,19.989 8.756,20.030 9.042 M28.667 9.250 C 28.667 9.387,28.742 9.500,28.833 9.500 C 28.925 9.500,29.000 9.387,29.000 9.250 C 29.000 9.112,28.925 9.000,28.833 9.000 C 28.742 9.000,28.667 9.112,28.667 9.250 M70.167 9.250 C 70.167 9.387,70.242 9.500,70.333 9.500 C 70.425 9.500,70.500 9.387,70.500 9.250 C 70.500 9.112,70.425 9.000,70.333 9.000 C 70.242 9.000,70.167 9.112,70.167 9.250 M78.667 9.250 C 78.667 9.387,78.742 9.500,78.833 9.500 C 78.925 9.500,79.000 9.387,79.000 9.250 C 79.000 9.112,78.925 9.000,78.833 9.000 C 78.742 9.000,78.667 9.112,78.667 9.250 M120.500 9.250 C 120.500 9.387,120.575 9.500,120.667 9.500 C 120.758 9.500,120.833 9.387,120.833 9.250 C 120.833 9.112,120.758 9.000,120.667 9.000 C 120.575 9.000,120.500 9.112,120.500 9.250 M129.025 9.158 C 129.097 9.373,129.325 9.412,129.346 9.212 C 129.353 9.146,129.268 9.062,129.158 9.025 C 129.048 8.988,128.988 9.048,129.025 9.158 M20.358 9.825 C 20.430 10.040,20.659 10.078,20.679 9.879 C 20.686 9.813,20.602 9.728,20.492 9.692 C 20.382 9.655,20.322 9.715,20.358 9.825 M28.333 9.917 C 28.333 10.054,28.408 10.167,28.500 10.167 C 28.592 10.167,28.667 10.054,28.667 9.917 C 28.667 9.779,28.592 9.667,28.500 9.667 C 28.408 9.667,28.333 9.779,28.333 9.917 M78.384 9.891 C 78.433 10.018,78.153 10.391,77.735 10.754 C 77.331 11.105,77.000 11.455,77.000 11.530 C 77.000 11.818,77.367 11.644,77.916 11.095 C 78.521 10.490,78.858 9.667,78.500 9.667 C 78.389 9.667,78.336 9.768,78.384 9.891 M120.833 9.917 C 120.833 10.054,120.908 10.167,121.000 10.167 C 121.092 10.167,121.167 10.054,121.167 9.917 C 121.167 9.779,121.092 9.667,121.000 9.667 C 120.908 9.667,120.833 9.779,120.833 9.917 M70.667 10.339 C 70.667 10.563,71.770 11.667,71.994 11.667 C 72.289 11.667,72.189 11.479,71.542 10.811 C 70.908 10.158,70.667 10.028,70.667 10.339 M20.667 10.422 C 20.667 10.586,21.820 11.667,21.994 11.667 C 22.299 11.667,22.181 11.453,21.562 10.887 C 21.006 10.377,20.667 10.201,20.667 10.422 M27.542 10.895 C 26.939 11.515,26.882 11.667,27.250 11.667 C 27.387 11.667,27.500 11.595,27.500 11.508 C 27.500 11.420,27.688 11.161,27.917 10.932 C 28.146 10.703,28.333 10.474,28.333 10.424 C 28.333 10.205,28.044 10.377,27.542 10.895 M121.167 10.424 C 121.167 10.474,121.354 10.703,121.583 10.932 C 121.813 11.161,122.000 11.420,122.000 11.508 C 122.000 11.595,122.112 11.667,122.250 11.667 C 122.615 11.667,122.557 11.443,122.083 11.031 C 121.854 10.832,121.667 10.593,121.667 10.501 C 121.667 10.409,121.554 10.333,121.417 10.333 C 121.279 10.333,121.167 10.374,121.167 10.424 M127.875 10.907 C 127.314 11.454,127.210 11.667,127.506 11.667 C 127.680 11.667,128.833 10.586,128.833 10.422 C 128.833 10.192,128.365 10.429,127.875 10.907 M26.333 11.833 C 26.333 11.925,26.446 12.000,26.583 12.000 C 26.721 12.000,26.833 11.925,26.833 11.833 C 26.833 11.742,26.721 11.667,26.583 11.667 C 26.446 11.667,26.333 11.742,26.333 11.833 M122.667 11.833 C 122.667 11.925,122.779 12.000,122.917 12.000 C 123.054 12.000,123.167 11.925,123.167 11.833 C 123.167 11.742,123.054 11.667,122.917 11.667 C 122.779 11.667,122.667 11.742,122.667 11.833 M23.100 11.956 C 22.899 12.157,23.008 12.333,23.333 12.333 C 23.517 12.333,23.667 12.266,23.667 12.184 C 23.667 11.997,23.233 11.822,23.100 11.956 M25.615 11.941 C 25.397 12.158,25.501 12.333,25.847 12.333 C 26.041 12.333,26.165 12.246,26.128 12.135 C 26.047 11.892,25.769 11.787,25.615 11.941 M73.100 11.956 C 72.899 12.157,73.008 12.333,73.333 12.333 C 73.517 12.333,73.667 12.266,73.667 12.184 C 73.667 11.997,73.233 11.822,73.100 11.956 M75.708 11.953 C 75.379 12.071,75.466 12.333,75.833 12.333 C 76.017 12.333,76.167 12.263,76.167 12.177 C 76.167 11.963,75.960 11.863,75.708 11.953 M123.448 11.941 C 123.231 12.158,123.334 12.333,123.681 12.333 C 123.875 12.333,123.999 12.246,123.962 12.135 C 123.881 11.892,123.602 11.787,123.448 11.941 M126.107 11.949 C 125.919 12.137,125.992 12.333,126.250 12.333 C 126.388 12.333,126.500 12.263,126.500 12.177 C 126.500 11.966,126.240 11.816,126.107 11.949 " stroke="none" fill="#ce8655" fill-rule="evenodd"></path><path id="path2" d="" stroke="none" fill="#ff5555" fill-rule="evenodd"></path><path id="path3" d="M23.600 3.601 C 23.526 3.792,23.377 3.839,23.082 3.765 C 22.779 3.688,22.667 3.727,22.667 3.908 C 22.667 4.060,22.570 4.119,22.417 4.060 C 22.261 4.001,22.167 4.061,22.167 4.221 C 22.167 4.362,22.029 4.521,21.860 4.575 C 21.691 4.628,21.454 4.858,21.332 5.086 C 21.210 5.314,21.002 5.500,20.871 5.500 C 20.726 5.500,20.669 5.599,20.727 5.750 C 20.786 5.903,20.727 6.000,20.575 6.000 C 20.394 6.000,20.355 6.112,20.431 6.415 C 20.505 6.711,20.458 6.860,20.268 6.933 C 19.891 7.077,19.887 8.634,20.262 8.778 C 20.439 8.845,20.494 9.002,20.430 9.255 C 20.369 9.501,20.421 9.665,20.582 9.726 C 20.721 9.780,20.785 9.931,20.729 10.077 C 20.675 10.218,20.711 10.333,20.809 10.333 C 20.907 10.333,21.293 10.633,21.667 11.000 C 22.041 11.367,22.419 11.667,22.507 11.667 C 22.595 11.667,22.667 11.750,22.667 11.853 C 22.667 11.957,22.814 12.000,23.003 11.951 C 23.188 11.903,23.445 11.969,23.574 12.098 C 23.911 12.435,25.433 12.415,25.565 12.072 C 25.631 11.898,25.777 11.846,25.999 11.916 C 26.191 11.977,26.333 11.947,26.333 11.845 C 26.333 11.747,26.440 11.667,26.570 11.667 C 26.878 11.667,28.333 10.212,28.333 9.904 C 28.333 9.773,28.408 9.667,28.500 9.667 C 28.592 9.667,28.667 9.535,28.667 9.375 C 28.667 9.099,29.774 9.083,49.583 9.083 C 68.994 9.083,70.500 9.103,70.500 9.361 C 70.500 9.514,70.594 9.677,70.708 9.723 C 70.865 9.787,70.855 9.852,70.667 9.985 C 70.446 10.141,70.447 10.162,70.677 10.164 C 70.820 10.166,71.249 10.504,71.631 10.917 C 72.013 11.329,72.402 11.667,72.496 11.667 C 72.590 11.667,72.667 11.750,72.667 11.853 C 72.667 11.957,72.814 12.000,73.003 11.951 C 73.188 11.903,73.445 11.969,73.574 12.098 C 73.709 12.233,74.139 12.333,74.583 12.333 C 75.027 12.333,75.457 12.233,75.592 12.098 C 75.722 11.969,75.979 11.903,76.164 11.951 C 76.353 12.000,76.500 11.957,76.500 11.853 C 76.500 11.750,76.568 11.667,76.651 11.667 C 76.918 11.667,78.419 10.106,78.368 9.882 C 78.341 9.764,78.397 9.667,78.493 9.667 C 78.588 9.667,78.667 9.535,78.667 9.375 C 78.667 9.099,79.782 9.083,99.750 9.083 C 119.718 9.083,120.833 9.099,120.833 9.375 C 120.833 9.535,120.908 9.667,121.000 9.667 C 121.092 9.667,121.167 9.817,121.167 10.000 C 121.167 10.185,121.278 10.333,121.417 10.333 C 121.554 10.333,121.667 10.397,121.667 10.475 C 121.667 10.722,122.659 11.667,122.918 11.667 C 123.055 11.667,123.167 11.747,123.167 11.845 C 123.167 11.947,123.309 11.977,123.501 11.916 C 123.723 11.846,123.869 11.898,123.935 12.072 C 124.072 12.427,125.920 12.449,126.055 12.096 C 126.111 11.951,126.280 11.894,126.490 11.949 C 126.685 12.000,126.833 11.959,126.833 11.853 C 126.833 11.750,126.905 11.667,126.993 11.667 C 127.081 11.667,127.459 11.367,127.833 11.000 C 128.207 10.633,128.585 10.333,128.673 10.333 C 128.761 10.333,128.833 10.183,128.833 10.000 C 128.833 9.817,128.913 9.667,129.011 9.667 C 129.109 9.667,129.147 9.535,129.097 9.375 C 129.009 9.098,129.854 9.086,145.502 9.127 C 156.717 9.157,162.000 9.117,162.000 9.000 C 162.000 8.906,161.907 8.680,161.793 8.498 C 161.629 8.234,161.629 8.099,161.793 7.836 C 161.907 7.654,162.000 7.429,162.000 7.336 C 162.000 7.223,156.627 7.165,145.792 7.161 C 128.386 7.156,128.816 7.177,129.079 6.346 C 129.158 6.098,129.116 6.000,128.933 6.000 C 128.774 6.000,128.713 5.905,128.773 5.750 C 128.831 5.599,128.774 5.500,128.629 5.500 C 128.498 5.500,128.290 5.314,128.168 5.086 C 128.046 4.858,127.809 4.628,127.640 4.575 C 127.471 4.521,127.333 4.370,127.333 4.239 C 127.333 4.107,127.221 4.000,127.083 4.000 C 126.946 4.000,126.833 3.924,126.833 3.830 C 126.833 3.732,126.657 3.705,126.418 3.765 C 126.123 3.839,125.974 3.792,125.900 3.601 C 125.750 3.210,124.000 3.213,124.000 3.604 C 124.000 3.817,123.891 3.853,123.492 3.773 C 123.176 3.710,123.022 3.734,123.085 3.836 C 123.141 3.926,123.032 4.000,122.843 4.000 C 122.654 4.000,122.500 4.069,122.500 4.153 C 122.500 4.238,122.200 4.610,121.833 4.980 C 121.467 5.351,121.167 5.732,121.167 5.827 C 121.167 5.922,121.083 6.000,120.981 6.000 C 120.876 6.000,120.833 6.147,120.882 6.336 C 121.110 7.206,122.104 7.167,99.835 7.167 C 77.688 7.167,78.667 7.198,78.667 6.482 C 78.667 6.217,78.584 6.000,78.482 6.000 C 78.381 6.000,78.341 5.887,78.394 5.750 C 78.449 5.607,78.397 5.500,78.273 5.500 C 78.154 5.500,77.957 5.314,77.835 5.086 C 77.713 4.858,77.475 4.628,77.307 4.575 C 77.138 4.521,77.000 4.370,77.000 4.239 C 77.000 4.107,76.887 4.000,76.750 4.000 C 76.612 4.000,76.500 3.924,76.500 3.830 C 76.500 3.732,76.324 3.705,76.085 3.765 C 75.789 3.839,75.640 3.792,75.567 3.601 C 75.420 3.219,73.746 3.219,73.600 3.601 C 73.526 3.792,73.377 3.839,73.082 3.765 C 72.843 3.705,72.667 3.732,72.667 3.830 C 72.667 3.924,72.554 4.000,72.417 4.000 C 72.279 4.000,72.167 4.068,72.167 4.150 C 72.167 4.342,71.013 5.500,70.822 5.500 C 70.742 5.500,70.720 5.612,70.773 5.750 C 70.826 5.887,70.786 6.000,70.684 6.000 C 70.583 6.000,70.500 6.155,70.500 6.345 C 70.500 7.209,71.583 7.167,49.524 7.167 C 27.407 7.167,28.390 7.206,28.618 6.336 C 28.667 6.147,28.624 6.000,28.519 6.000 C 28.417 6.000,28.333 5.913,28.333 5.807 C 28.333 5.701,28.033 5.321,27.667 4.961 C 27.300 4.602,27.000 4.238,27.000 4.154 C 27.000 4.069,26.887 4.000,26.750 4.000 C 26.613 4.000,26.500 3.917,26.500 3.815 C 26.500 3.701,26.340 3.671,26.080 3.736 C 25.785 3.810,25.630 3.766,25.562 3.587 C 25.420 3.217,23.742 3.229,23.600 3.601 M378.801 8.422 C 378.748 8.873,378.786 8.990,378.963 8.922 C 379.090 8.873,379.225 8.833,379.264 8.833 C 379.302 8.833,379.333 8.608,379.333 8.333 C 379.333 7.607,378.888 7.681,378.801 8.422 " stroke="none" fill="#98ca3b" fill-rule="evenodd"></path><path id="path4" d="M173.083 3.501 C 172.957 3.705,173.414 3.906,173.659 3.755 C 173.755 3.696,173.833 3.576,173.833 3.490 C 173.833 3.280,173.214 3.289,173.083 3.501 M175.537 3.528 C 175.623 3.786,176.147 3.829,176.208 3.583 C 176.231 3.492,176.073 3.392,175.856 3.361 C 175.587 3.323,175.486 3.375,175.537 3.528 M223.167 3.596 C 223.167 3.751,223.280 3.836,223.445 3.804 C 223.863 3.723,223.920 3.333,223.514 3.333 C 223.309 3.333,223.167 3.441,223.167 3.596 M225.542 3.542 C 225.580 3.656,225.749 3.750,225.917 3.750 C 226.085 3.750,226.253 3.656,226.292 3.542 C 226.336 3.410,226.198 3.333,225.917 3.333 C 225.635 3.333,225.498 3.410,225.542 3.542 M272.833 3.583 C 272.833 3.721,272.975 3.833,273.149 3.833 C 273.322 3.833,273.508 3.721,273.560 3.583 C 273.630 3.403,273.542 3.333,273.245 3.333 C 272.990 3.333,272.833 3.429,272.833 3.583 M275.333 3.583 C 275.333 3.722,275.481 3.833,275.667 3.833 C 275.852 3.833,276.000 3.722,276.000 3.583 C 276.000 3.444,275.852 3.333,275.667 3.333 C 275.481 3.333,275.333 3.444,275.333 3.583 M323.208 3.542 C 323.247 3.656,323.415 3.750,323.583 3.750 C 323.751 3.750,323.920 3.656,323.958 3.542 C 324.002 3.410,323.865 3.333,323.583 3.333 C 323.302 3.333,323.164 3.410,323.208 3.542 M325.708 3.542 C 325.813 3.857,326.333 3.902,326.333 3.596 C 326.333 3.441,326.191 3.333,325.986 3.333 C 325.782 3.333,325.668 3.419,325.708 3.542 M372.916 3.501 C 372.790 3.705,373.247 3.906,373.492 3.755 C 373.588 3.696,373.667 3.576,373.667 3.490 C 373.667 3.280,373.047 3.289,372.916 3.501 M375.370 3.528 C 375.456 3.786,375.980 3.829,376.042 3.583 C 376.065 3.492,375.906 3.392,375.690 3.361 C 375.420 3.323,375.320 3.375,375.370 3.528 M172.500 3.917 C 172.500 4.054,172.575 4.167,172.667 4.167 C 172.758 4.167,172.833 4.054,172.833 3.917 C 172.833 3.779,172.758 3.667,172.667 3.667 C 172.575 3.667,172.500 3.779,172.500 3.917 M176.500 3.917 C 176.500 4.054,176.575 4.167,176.667 4.167 C 176.758 4.167,176.833 4.054,176.833 3.917 C 176.833 3.779,176.758 3.667,176.667 3.667 C 176.575 3.667,176.500 3.779,176.500 3.917 M222.500 3.911 C 222.500 4.057,222.402 4.119,222.259 4.064 C 222.010 3.968,220.833 5.012,220.833 5.328 C 220.833 5.643,221.183 5.506,221.578 5.037 C 221.792 4.782,222.162 4.469,222.401 4.342 C 222.823 4.116,223.000 3.667,222.667 3.667 C 222.575 3.667,222.500 3.777,222.500 3.911 M226.532 3.846 C 226.565 3.944,226.663 4.025,226.750 4.025 C 226.837 4.025,226.935 3.944,226.968 3.846 C 227.001 3.747,226.903 3.667,226.750 3.667 C 226.597 3.667,226.499 3.747,226.532 3.846 M272.199 3.846 C 272.231 3.944,272.330 4.025,272.417 4.025 C 272.504 4.025,272.602 3.944,272.635 3.846 C 272.668 3.747,272.569 3.667,272.417 3.667 C 272.264 3.667,272.166 3.747,272.199 3.846 M276.272 3.798 C 276.213 3.893,276.426 4.133,276.746 4.331 C 277.066 4.529,277.471 4.873,277.646 5.095 C 277.956 5.488,278.333 5.637,278.333 5.366 C 278.333 5.057,277.159 3.967,276.923 4.058 C 276.787 4.110,276.609 4.034,276.527 3.888 C 276.435 3.724,276.339 3.689,276.272 3.798 M322.667 3.833 C 322.667 3.925,322.535 4.000,322.374 4.000 C 322.075 4.000,321.000 5.047,321.000 5.339 C 321.000 5.639,321.324 5.502,321.597 5.086 C 321.746 4.859,322.123 4.515,322.434 4.323 C 322.982 3.984,323.175 3.667,322.833 3.667 C 322.742 3.667,322.667 3.742,322.667 3.833 M376.333 3.917 C 376.333 4.054,376.433 4.167,376.554 4.167 C 376.675 4.167,377.069 4.465,377.429 4.831 C 378.094 5.506,378.333 5.637,378.333 5.328 C 378.333 5.059,377.208 4.000,376.922 4.000 C 376.782 4.000,376.667 3.925,376.667 3.833 C 376.667 3.742,376.592 3.667,376.500 3.667 C 376.408 3.667,376.333 3.779,376.333 3.917 M171.375 4.590 C 170.786 5.206,170.692 5.500,171.083 5.500 C 171.221 5.500,171.333 5.426,171.333 5.335 C 171.333 5.244,171.558 4.969,171.833 4.724 C 172.108 4.479,172.333 4.216,172.333 4.139 C 172.333 3.841,171.892 4.049,171.375 4.590 M177.000 4.125 C 177.000 4.274,178.243 5.500,178.394 5.500 C 178.654 5.500,178.454 5.109,177.922 4.578 C 177.376 4.032,177.000 3.847,177.000 4.125 M227.167 4.146 C 227.167 4.322,228.228 5.500,228.387 5.500 C 228.637 5.500,228.472 5.147,227.959 4.589 C 227.425 4.007,227.167 3.862,227.167 4.146 M271.125 4.527 C 270.732 4.969,270.518 5.500,270.733 5.500 C 270.869 5.500,272.000 4.295,272.000 4.150 C 272.000 3.843,271.569 4.029,271.125 4.527 M327.167 4.150 C 327.167 4.345,328.321 5.500,328.517 5.500 C 328.819 5.500,328.653 5.141,328.089 4.578 C 327.525 4.014,327.167 3.848,327.167 4.150 M371.208 4.590 C 370.686 5.137,370.523 5.500,370.800 5.500 C 370.962 5.500,372.167 4.282,372.167 4.118 C 372.167 3.840,371.710 4.064,371.208 4.590 M278.167 5.833 C 278.167 5.925,278.279 6.000,278.417 6.000 C 278.554 6.000,278.667 5.925,278.667 5.833 C 278.667 5.742,278.554 5.667,278.417 5.667 C 278.279 5.667,278.167 5.742,278.167 5.833 M170.167 6.681 C 170.167 7.087,170.556 7.029,170.637 6.611 C 170.669 6.447,170.584 6.333,170.429 6.333 C 170.274 6.333,170.167 6.476,170.167 6.681 M178.696 6.611 C 178.777 7.029,179.167 7.087,179.167 6.681 C 179.167 6.476,179.059 6.333,178.904 6.333 C 178.749 6.333,178.664 6.447,178.696 6.611 M220.167 6.681 C 220.167 7.087,220.556 7.029,220.637 6.611 C 220.669 6.447,220.584 6.333,220.429 6.333 C 220.274 6.333,220.167 6.476,220.167 6.681 M228.789 6.433 C 228.656 6.566,228.830 7.000,229.018 7.000 C 229.100 7.000,229.167 6.850,229.167 6.667 C 229.167 6.342,228.990 6.232,228.789 6.433 M270.000 6.667 C 270.000 6.850,270.067 7.000,270.149 7.000 C 270.336 7.000,270.511 6.566,270.377 6.433 C 270.177 6.232,270.000 6.342,270.000 6.667 M278.500 6.667 C 278.500 6.850,278.575 7.000,278.667 7.000 C 278.758 7.000,278.833 6.850,278.833 6.667 C 278.833 6.483,278.758 6.333,278.667 6.333 C 278.575 6.333,278.500 6.483,278.500 6.667 M320.333 6.667 C 320.333 6.850,320.400 7.000,320.482 7.000 C 320.670 7.000,320.844 6.566,320.711 6.433 C 320.510 6.232,320.333 6.342,320.333 6.667 M328.863 6.611 C 328.944 7.029,329.333 7.087,329.333 6.681 C 329.333 6.476,329.226 6.333,329.071 6.333 C 328.916 6.333,328.831 6.447,328.863 6.611 M370.000 6.681 C 370.000 7.087,370.389 7.029,370.471 6.611 C 370.502 6.447,370.417 6.333,370.262 6.333 C 370.108 6.333,370.000 6.476,370.000 6.681 M378.529 6.611 C 378.611 7.029,379.000 7.087,379.000 6.681 C 379.000 6.476,378.892 6.333,378.738 6.333 C 378.583 6.333,378.498 6.447,378.529 6.611 M170.167 9.264 C 170.167 9.558,170.525 9.507,170.628 9.198 C 170.665 9.089,170.576 9.000,170.431 9.000 C 170.285 9.000,170.167 9.119,170.167 9.264 M178.705 9.198 C 178.808 9.507,179.167 9.558,179.167 9.264 C 179.167 9.119,179.048 9.000,178.903 9.000 C 178.758 9.000,178.669 9.089,178.705 9.198 M220.278 9.111 C 220.086 9.303,220.156 9.500,220.417 9.500 C 220.554 9.500,220.667 9.387,220.667 9.250 C 220.667 8.990,220.470 8.919,220.278 9.111 M228.705 9.198 C 228.808 9.507,229.167 9.558,229.167 9.264 C 229.167 9.119,229.048 9.000,228.903 9.000 C 228.758 9.000,228.669 9.089,228.705 9.198 M270.000 9.250 C 270.000 9.387,270.075 9.500,270.167 9.500 C 270.258 9.500,270.333 9.387,270.333 9.250 C 270.333 9.112,270.258 9.000,270.167 9.000 C 270.075 9.000,270.000 9.112,270.000 9.250 M278.500 9.250 C 278.500 9.387,278.575 9.500,278.667 9.500 C 278.758 9.500,278.833 9.387,278.833 9.250 C 278.833 9.112,278.758 9.000,278.667 9.000 C 278.575 9.000,278.500 9.112,278.500 9.250 M320.333 9.250 C 320.333 9.387,320.408 9.500,320.500 9.500 C 320.592 9.500,320.667 9.387,320.667 9.250 C 320.667 9.112,320.592 9.000,320.500 9.000 C 320.408 9.000,320.333 9.112,320.333 9.250 M328.833 9.236 C 328.833 9.381,328.952 9.500,329.097 9.500 C 329.242 9.500,329.331 9.411,329.295 9.302 C 329.192 8.993,328.833 8.942,328.833 9.236 M370.076 9.178 C 370.016 9.276,370.007 9.396,370.056 9.444 C 370.175 9.564,370.500 9.353,370.500 9.157 C 370.500 8.944,370.212 8.958,370.076 9.178 M378.538 9.198 C 378.641 9.507,379.000 9.558,379.000 9.264 C 379.000 9.119,378.881 9.000,378.736 9.000 C 378.591 9.000,378.502 9.089,378.538 9.198 M170.500 9.917 C 170.500 10.054,170.575 10.167,170.667 10.167 C 170.758 10.167,170.833 10.244,170.833 10.339 C 170.833 10.563,171.937 11.667,172.161 11.667 C 172.456 11.667,172.357 11.511,171.583 10.759 C 171.171 10.358,170.833 9.948,170.833 9.848 C 170.833 9.748,170.758 9.667,170.667 9.667 C 170.575 9.667,170.500 9.779,170.500 9.917 M178.500 9.840 C 178.500 10.048,177.415 11.146,176.833 11.525 C 176.595 11.681,176.480 11.858,176.564 11.940 C 176.648 12.021,176.745 11.992,176.787 11.875 C 176.828 11.760,176.970 11.667,177.103 11.667 C 177.378 11.667,178.500 10.600,178.500 10.339 C 178.500 10.244,178.575 10.167,178.667 10.167 C 178.758 10.167,178.833 10.054,178.833 9.917 C 178.833 9.779,178.758 9.667,178.667 9.667 C 178.575 9.667,178.500 9.745,178.500 9.840 M220.500 9.752 C 220.500 10.116,221.845 11.667,222.161 11.667 C 222.476 11.667,222.340 11.439,221.613 10.752 C 221.217 10.378,220.923 9.981,220.960 9.869 C 220.997 9.758,220.909 9.667,220.764 9.667 C 220.619 9.667,220.500 9.705,220.500 9.752 M228.500 9.917 C 228.500 10.054,228.423 10.167,228.330 10.167 C 228.236 10.167,228.082 10.336,227.988 10.543 C 227.894 10.750,227.521 11.089,227.158 11.298 C 226.538 11.655,226.296 12.000,226.667 12.000 C 226.758 12.000,226.833 11.925,226.833 11.833 C 226.833 11.742,227.021 11.667,227.250 11.667 C 227.479 11.667,227.667 11.595,227.667 11.508 C 227.667 11.420,227.854 11.161,228.083 10.932 C 228.313 10.703,228.500 10.437,228.500 10.341 C 228.500 10.245,228.575 10.167,228.667 10.167 C 228.758 10.167,228.833 10.054,228.833 9.917 C 228.833 9.779,228.758 9.667,228.667 9.667 C 228.575 9.667,228.500 9.779,228.500 9.917 M270.333 9.917 C 270.333 10.054,270.408 10.167,270.500 10.167 C 270.592 10.167,270.667 10.271,270.667 10.399 C 270.667 10.769,271.599 11.667,271.984 11.667 C 272.176 11.667,272.333 11.742,272.333 11.833 C 272.333 11.925,272.408 12.000,272.500 12.000 C 272.813 12.000,272.667 11.659,272.292 11.512 C 271.747 11.299,270.667 10.182,270.667 9.831 C 270.667 9.741,270.592 9.667,270.500 9.667 C 270.408 9.667,270.333 9.779,270.333 9.917 M278.204 9.862 C 278.240 9.969,277.946 10.361,277.551 10.733 C 276.833 11.409,276.682 11.667,277.006 11.667 C 277.321 11.667,278.667 10.116,278.667 9.752 C 278.667 9.705,278.548 9.667,278.403 9.667 C 278.258 9.667,278.168 9.755,278.204 9.862 M320.667 9.917 C 320.667 10.054,320.742 10.167,320.833 10.167 C 320.925 10.167,321.000 10.245,321.000 10.341 C 321.000 10.437,321.188 10.703,321.417 10.932 C 321.646 11.161,321.833 11.420,321.833 11.508 C 321.833 11.595,321.946 11.667,322.083 11.667 C 322.440 11.667,322.393 11.208,322.025 11.091 C 321.856 11.038,321.632 10.808,321.529 10.580 C 321.425 10.353,321.264 10.167,321.170 10.167 C 321.077 10.167,321.000 10.054,321.000 9.917 C 321.000 9.779,320.925 9.667,320.833 9.667 C 320.742 9.667,320.667 9.779,320.667 9.917 M328.540 9.869 C 328.618 10.105,327.199 11.500,326.881 11.500 C 326.763 11.500,326.667 11.612,326.667 11.750 C 326.667 11.887,326.742 12.000,326.833 12.000 C 326.925 12.000,327.000 11.925,327.000 11.833 C 327.000 11.742,327.115 11.667,327.256 11.667 C 327.638 11.667,329.000 10.172,329.000 9.752 C 329.000 9.705,328.881 9.667,328.736 9.667 C 328.591 9.667,328.503 9.758,328.540 9.869 M370.333 9.917 C 370.333 10.054,370.408 10.167,370.500 10.167 C 370.592 10.167,370.667 10.244,370.667 10.339 C 370.667 10.600,371.789 11.667,372.064 11.667 C 372.197 11.667,372.339 11.760,372.380 11.875 C 372.422 11.992,372.519 12.021,372.602 11.940 C 372.687 11.858,372.572 11.681,372.333 11.525 C 371.752 11.146,370.667 10.048,370.667 9.840 C 370.667 9.745,370.592 9.667,370.500 9.667 C 370.408 9.667,370.333 9.779,370.333 9.917 M378.333 9.848 C 378.333 9.948,377.996 10.358,377.583 10.759 C 376.809 11.511,376.710 11.667,377.006 11.667 C 377.230 11.667,378.333 10.563,378.333 10.339 C 378.333 10.244,378.408 10.167,378.500 10.167 C 378.592 10.167,378.667 10.054,378.667 9.917 C 378.667 9.779,378.592 9.667,378.500 9.667 C 378.408 9.667,378.333 9.748,378.333 9.848 M276.167 11.833 C 276.167 11.925,276.279 12.000,276.417 12.000 C 276.554 12.000,276.667 11.925,276.667 11.833 C 276.667 11.742,276.554 11.667,276.417 11.667 C 276.279 11.667,276.167 11.742,276.167 11.833 M322.500 11.833 C 322.500 11.925,322.612 12.000,322.750 12.000 C 322.887 12.000,323.000 11.925,323.000 11.833 C 323.000 11.742,322.887 11.667,322.750 11.667 C 322.612 11.667,322.500 11.742,322.500 11.833 M173.111 11.944 C 172.885 12.171,173.012 12.333,173.417 12.333 C 173.882 12.333,173.975 12.090,173.570 11.934 C 173.243 11.809,173.246 11.809,173.111 11.944 M175.708 11.944 C 175.594 11.990,175.500 12.102,175.500 12.192 C 175.500 12.405,176.178 12.302,176.186 12.088 C 176.193 11.891,175.992 11.831,175.708 11.944 M223.281 11.941 C 223.064 12.158,223.168 12.333,223.514 12.333 C 223.708 12.333,223.832 12.246,223.795 12.135 C 223.714 11.892,223.436 11.787,223.281 11.941 M225.707 11.945 C 225.407 12.065,225.625 12.333,226.024 12.333 C 226.210 12.333,226.332 12.245,226.295 12.135 C 226.217 11.901,225.996 11.829,225.707 11.945 M272.948 11.941 C 272.731 12.158,272.834 12.333,273.181 12.333 C 273.375 12.333,273.499 12.246,273.462 12.135 C 273.381 11.892,273.102 11.787,272.948 11.941 M275.448 11.941 C 275.231 12.158,275.334 12.333,275.681 12.333 C 275.875 12.333,275.999 12.246,275.962 12.135 C 275.881 11.892,275.602 11.787,275.448 11.941 M323.278 11.944 C 323.051 12.171,323.179 12.333,323.583 12.333 C 324.049 12.333,324.142 12.090,323.736 11.934 C 323.410 11.809,323.413 11.809,323.278 11.944 M325.875 11.953 C 325.546 12.071,325.632 12.333,326.000 12.333 C 326.183 12.333,326.333 12.263,326.333 12.177 C 326.333 11.963,326.127 11.863,325.875 11.953 M373.042 11.955 C 372.678 12.082,372.817 12.333,373.250 12.333 C 373.479 12.333,373.667 12.266,373.667 12.184 C 373.667 11.993,373.310 11.862,373.042 11.955 M375.542 11.944 C 375.178 12.090,375.317 12.333,375.764 12.333 C 376.022 12.333,376.168 12.254,376.128 12.135 C 376.050 11.901,375.830 11.829,375.542 11.944 " stroke="none" fill="#ff9999" fill-rule="evenodd"></path></g></svg>